<svg xmlns="http://www.w3.org/2000/svg" width="512" height="512" viewBox="0 0 512 512">
  <defs><linearGradient id="bg" x2="1" y2="1"><stop stop-color="#155e75"/><stop offset="1" stop-color="#0e889a"/></linearGradient></defs>
  <rect width="512" height="512" fill="url(#bg)"/>
  <circle cx="256" cy="232" r="152" fill="none" stroke="#70d4d1" stroke-width="5" opacity=".6"/>
  <path d="M256 148c-27 0-42-21-74-8-36 15-34 57-20 85 15 29 20 34 25 77 5 40 23 53 36 25l18-42c7-16 23-16 30 0l18 42c13 28 31 15 36-25 5-43 10-48 25-77 14-28 16-70-20-85-32-13-47 8-74 8Z" fill="#f8faf6"/>
  <path d="M235 163c16 10 33 12 49 8" fill="none" stroke="#98ddd7" stroke-width="8" stroke-linecap="round"/>
  <path d="M181 235q75 41 150 0" fill="none" stroke="#0e7490" stroke-width="8" stroke-linecap="round"/>
  <text x="256" y="417" text-anchor="middle" font-family="Arial,sans-serif" font-weight="700" font-size="45" letter-spacing="7" fill="#fff">OZAKI</text>
</svg>
